PathFileType	4	(X/Y/Z)	34_2_25_p1_0-389_filt_butterworth.trc
DataRate	CameraRate	NumFrames	NumMarkers	Units	OrigDataRate	OrigDataStartFrame	OrigNumFrames
53.0	53.0	6	27	m	53.0	48	389
Frame#	Time	RHip			RKnee			RAnkle			RBigToe			RSmallToe			RHeel			LHip			LKnee			LAnkle			LBigToe			LSmallToe			LHeel			Neck			Head			Nose			RShoulder			RElbow			RWrist			RThumb			RIndex			RPinky			LShoulder			LElbow			LWrist			LThumb			LIndex			LPinky			
		X1	Y1	Z1	X2	Y2	Z2	X3	Y3	Z3	X4	Y4	Z4	X5	Y5	Z5	X6	Y6	Z6	X7	Y7	Z7	X8	Y8	Z8	X9	Y9	Z9	X10	Y10	Z10	X11	Y11	Z11	X12	Y12	Z12	X13	Y13	Z13	X14	Y14	Z14	X15	Y15	Z15	X16	Y16	Z16	X17	Y17	Z17	X18	Y18	Z18	X19	Y19	Z19	X20	Y20	Z20	X21	Y21	Z21	X22	Y22	Z22	X23	Y23	Z23	X24	Y24	Z24	X25	Y25	Z25	X26	Y26	Z26	X27	Y27	Z27	
48	0.9056603773584906	0.3967264168452847	0.43051257422096323	0.967663216613434	0.4055618941129153	0.6578112385764672	1.3784428356301008	0.39237490684687165	0.7586575834766577	1.739698051241466	0.3463921083045035	0.5916098165432797	1.7823258066640075	0.409954830384008	0.601610413218758	1.7868518953660917	0.35772414756600807	0.8656798638326398	1.7880383163384619	0.1690167486871467	0.45617872763345074	0.9743003442803799	0.16290296507992436	0.6389589362912451	1.3738003391674884	0.17047475331176704	0.7509028211769062	1.73057685237022	0.1964498786366709	0.5730788121989684	1.7764453162974976	0.13393205603071978	0.6126916298195049	1.7826504192382666	0.18292390859092053	0.8305101606731929	1.7910671422512783	0.2770448052179849	0.4130576853022338	0.4428113351571458	0.28768205983237893	0.2701882404405023	0.1978329868467354	0.2886591583663967	0.21967824699086153	0.3646522411069737	0.44405578532704326	0.4101495314981449	0.5057333092272305	0.51027483361696	0.4659807413884598	0.73998902767976	0.49818933259024045	0.3425294043632286	0.9442272441139914	0.4280704976599847	0.2788160908681606	1.0473500469747845	0.4452122365478247	0.28401850378779614	1.085332604999207	0.4990602846356119	0.37421213484925364	1.0968924986125068	0.11913367744376928	0.4053960949525857	0.5053878217029996	0.04226013273278107	0.4932279779611835	0.757767766790256	0.06765363235789516	0.345760667767175	0.9681853124519502	0.12866613300233254	0.30421321074465174	1.0511096834885436	0.10876811395112479	0.26369904683599976	1.0540094131700517	0.06545513439650798	0.3378813433664518	1.067698284695389
49	0.9245283018867924	0.39466105975055427	0.4282263366932057	0.9684984121810761	0.4055845153885684	0.6577678251937504	1.3786260283931273	0.3938819436170125	0.7644795657926557	1.7411713121695107	0.3464486253677371	0.5917272654095851	1.7823409728039745	0.4100836670703624	0.6020747258757472	1.7870163909763974	0.3563684717285098	0.8708279133306331	1.7887172922028005	0.16896291021981413	0.45420437037161027	0.976075406008693	0.16284082277293027	0.6390593346703577	1.3741253206063442	0.17044405186505418	0.7514441200912337	1.731012745569788	0.19760244228442167	0.5725701791184757	1.777257952196428	0.13395577027662806	0.6126559511629274	1.7826251428471878	0.18441010893199322	0.8322328412884414	1.79086007196498	0.2766183218848057	0.4143938073133424	0.44277056638044887	0.28793089089635326	0.27102610627921486	0.19742032029248732	0.2885188057579284	0.21962946253029225	0.3646027075786761	0.44406971936933104	0.41022078911896964	0.5057575789810871	0.506676198843694	0.47737178179815526	0.7418143992052493	0.49934401315601806	0.34183232512843365	0.9437273095825225	0.4349527628243556	0.28070393911174885	1.0497941231993704	0.4542030587059298	0.28163706529127874	1.0876336445390427	0.5010852955331672	0.372409454307425	1.0976923655863688	0.1191407095587235	0.40547260526258827	0.5054667762384281	0.042546402541479005	0.49417805542025217	0.7566585285819531	0.06622823299716353	0.34619341728376923	0.9677569511395485	0.12256959736732632	0.2918157824416963	1.0496220278095652	0.10475512271078778	0.2638383271549114	1.0538704451151373	0.06369674114710132	0.3415981576844571	1.0670405004051595
50	0.9433962264150944	0.39305430248512696	0.42808438369098634	0.9688234733292532	0.4056196558222146	0.6575785448678927	1.3788552615538525	0.3950871018043398	0.7681787243546496	1.7429231227689146	0.3464585440852699	0.59181393396879	1.7823392281114465	0.41013439074481084	0.6024319318402285	1.7871419473105914	0.3544901406454859	0.8780445548095105	1.7906521086048797	0.1690452896617882	0.4547565441993777	0.976731860617808	0.16259932351289266	0.6395230642207463	1.3753527032468584	0.1705220210895912	0.7516000346629361	1.7307841307033207	0.19818865639135	0.57245310616734	1.7785034473726555	0.13399165185287149	0.6124978630912026	1.782622309970429	0.1850426172653575	0.8335104397099661	1.792395868625164	0.2770651989928283	0.41308688916351477	0.4428314545226115	0.28788327482627235	0.270798448867246	0.1975491771696435	0.28848434184806854	0.21994380620008058	0.36452776924247	0.4440855390940892	0.41024447240270284	0.5057850752214668	0.5031172162733523	0.4872746939681327	0.7441272454979264	0.5003826089604224	0.3405833965210704	0.9426301076006868	0.44214135532706356	0.28059483963620047	1.0509009180510083	0.46376396465754	0.27402471795226907	1.0876785425012434	0.5033479462211451	0.3697732243667182	1.0972816280648725	0.11916217028611323	0.40561190317136697	0.5056216482022962	0.04361447999245391	0.4944435609539116	0.7550582544147069	0.06543736600514834	0.3459544844523409	0.9657194062598178	0.11785173058988706	0.28412941006126474	1.0488893516806381	0.10002216118501955	0.26759305169249586	1.0540861591632669	0.0617330635751356	0.3467694328411383	1.0663234474429448
51	0.9622641509433962	0.3920601340116244	0.42825537632851685	0.9688711836249324	0.4056594065106089	0.6574053838836412	1.3791894882535383	0.39552526150841183	0.7689534849259612	1.7440467757222993	0.346436883480036	0.5918212482414468	1.7823246442453486	0.4101192650354265	0.6024756977757577	1.7871524202618707	0.3530599799425747	0.8835137975532175	1.793165027940849	0.16914769384118208	0.45540575366713415	0.9766804737360169	0.16224847495098493	0.6401697392061967	1.377083938069791	0.17053324061370845	0.7514240165157755	1.7304164653159209	0.19829997493217796	0.5729691510713415	1.7790287057944738	0.13403038071102252	0.6122984672264272	1.7826464104589475	0.18529178380495967	0.8338816720038001	1.7947257478980934	0.27837156191865936	0.4091807216488327	0.4429951600946063	0.28783062074483384	0.27046383664478524	0.19772551066485503	0.28883918950169696	0.22058383266415033	0.3642381930737037	0.4440919690433101	0.41025111402821807	0.5057942817149924	0.5005078023937949	0.49405897303331536	0.7457692374861125	0.5011668052544683	0.33950739644227285	0.9413517288187226	0.4496337973169068	0.2798600287513172	1.0514918870650942	0.4734953291272608	0.26000531736226745	1.0850842594962187	0.5062520806524129	0.36798448806169254	1.0970537720614577	0.11917606457012497	0.40568921622667	0.5057253805034934	0.04512919679393288	0.49439098573722395	0.7538915841558814	0.06446175574020815	0.3446621399969741	0.9623915960858249	0.11310659232188931	0.2819100646580996	1.0491080820568708	0.09383436500790947	0.27614577978113664	1.0551995275171513	0.060282131576853304	0.35054008342239784	1.0658375172973051
52	0.981132075471698	0.39183247865630877	0.4283504018021756	0.9690485856639813	0.4056885870078821	0.657488573612731	1.3796007336879463	0.39549063741353796	0.7685065617873346	1.744355031647293	0.3464111443618085	0.5917874672422844	1.7822926686661082	0.41003939603842066	0.6022359671190114	1.7870638081841799	0.35256700013013853	0.8853871446407956	1.7943693332540875	0.1688095976120873	0.4554853027088693	0.9765802167821811	0.16199429492584552	0.640640888597764	1.3783412016379302	0.1704796560243942	0.7515135258576772	1.7302322920231654	0.19830313397684896	0.5736545193769481	1.779016864692073	0.1340679212036309	0.6121506662307337	1.7827061329851062	0.18542527385363824	0.8335299481280776	1.7966992887574411	0.2800695327290895	0.4041023501238049	0.44320973316150136	0.28784195825985426	0.27030780710989427	0.19783042728005623	0.28984704793642857	0.22079749496267714	0.36368642506301485	0.44405738274852924	0.4101921028053545	0.5057845244516281	0.4989712764929739	0.49740967628353805	0.7456997850659401	0.5019240176164587	0.3400305733304821	0.940489818057615	0.45703542093599653	0.27964788204316526	1.0517240927877827	0.4826393604383086	0.24425038881730843	1.0806483566857328	0.5089458859179935	0.3671617655040298	1.0965700255874886	0.11914194646540968	0.4055485574818748	0.5054609693546014	0.04614341827852494	0.49425121259734783	0.7535602844551264	0.06262877965834336	0.3439637965643958	0.9595842645914672	0.10757864372245378	0.28540297994643155	1.0501881949142433	0.08644585249305288	0.2890001562306228	1.057547960939624	0.05970877808691974	0.35183638346511503	1.0656481192853657
53	1.0	0.3920752779732284	0.42837931455798933	0.9695029538151666	0.4056950994351966	0.6579685591864177	1.3797075845159965	0.39538552657101167	0.7682008065296266	1.7442927930356384	0.34639661672775807	0.5917617077460937	1.7822495735053612	0.40992462063216073	0.6019147464870978	1.7869547355205375	0.3530350585232515	0.8836946171331719	1.793201520489565	0.1676021237720967	0.45515740923210796	0.9766604026378777	0.16190956658306235	0.6408164571289636	1.378747483660273	0.1704395143422508	0.7522214917451464	1.7307522726938527	0.1983654596035008	0.5739916208179214	1.778919743021693	0.13409002307311815	0.612101514315028	1.7827725221109503	0.1851324766437075	0.8328995906181256	1.7979120599337084	0.28126007970252165	0.4005756056381401	0.4433667821130015	0.287882392363197	0.270282065334643	0.1979109241461568	0.291194736874279	0.21938816947138756	0.3632183111194828	0.4439568517467327	0.4099600927884042	0.5057717740339625	0.49796732161235585	0.4991306359442638	0.7437153831267391	0.5034703450140025	0.34322391581573275	0.9401596274491175	0.46325888024249423	0.2793867824434562	1.0512024146143666	0.48974765312308455	0.23454220121375763	1.0773279324592744	0.5104910695592487	0.36698485494767774	1.0946610105574515	0.11902551312252059	0.4051490238732196	0.5044701961683666	0.04642943904803344	0.4939469145721079	0.7537181991989812	0.06014034004474044	0.34616241553957844	0.9586072851137276	0.10063781406175777	0.2956126586837602	1.0518436673171851	0.07907399581438934	0.30393918503804884	1.0603011156596671	0.05960924394205757	0.35179663775870873	1.0656069396545043
